<svg xmlns="http://www.w3.org/2000/svg" viewBox="0 0 251.23 251.24"><defs><style>.cls-1{fill:#b8e1e9;}.cls-2{fill:#87cbcb;}.cls-3{fill:#68bcb0;}.cls-4{fill:#fff;}.cls-5{fill:#a7aaad;}.cls-6{fill:#429c9d;}.cls-7{fill:#222625;}.cls-8{fill:#353333;}.cls-9{fill:#2e3432;}.cls-10{fill:#eabd97;}.cls-11{fill:#b78871;}.cls-12{fill:#b78972;}.cls-13{fill:#d8d9d9;}.cls-14{fill:#dcdddd;}.cls-15{fill:#5a5d5e;}.cls-16{fill:#a8abaf;}.cls-17{fill:#1c1b1d;}</style></defs><g id="Layer_2" data-name="Layer 2"><g id="dev"><path class="cls-1" d="M251.23,125.62a125.72,125.72,0,0,1-64.68,109.87,123.52,123.52,0,0,1-27.86,11.34c-1.62.45-3.24.85-4.88,1.23a126.55,126.55,0,0,1-52.26.87c-1.24-.24-2.47-.5-3.7-.78a125.39,125.39,0,0,1-61.4-34h0a125.65,125.65,0,1,1,214.78-88.48Z"/><path class="cls-2" d="M251.23,125.62a125.72,125.72,0,0,1-64.68,109.87L138,166.56V33l15.06-9.41,89.68,56.63A125.19,125.19,0,0,1,251.23,125.62Z"/><path class="cls-3" d="M169.7,201.66l-11,45.17c-1.62.45-3.24.85-4.88,1.23a126.55,126.55,0,0,1-52.26.87c-1.24-.24-2.47-.5-3.7-.78L90.21,207l1.36-45,68.68.38Z"/><path class="cls-4" d="M101.57,248.93h0a125.36,125.36,0,0,1-65.1-34.82h0s-1.22-4.74,6.61-27S91.57,162,91.57,162C92.34,199.75,101.57,248.93,101.57,248.93Z"/><path class="cls-4" d="M216,212.89a125.35,125.35,0,0,1-62.16,35.17l-.71,0s10.13-60.6,7.15-85.75c0,0,25.11,2.43,32.94,8.22S212.7,179.82,216,212.89Z"/><path class="cls-5" d="M134.59,232.56s-5.49-35.11,16-42.13c0,0,9.45-2.17,13.53,8.55,0,0,5.92,18.34-22.55,33.28L137.06,234s1.79,6.64,4.6,9.58a16.93,16.93,0,0,1,3.44,4.51L140.72,245s-3.87-3.19-5.49-10.46c0,0-7.91,2.17-12.17-1.66s-1.7-4.09-1.7-4.09l2.81,2.77S129.74,234.56,134.59,232.56Zm27.32-24.64c-8.29-11.81-19.83-8.61-19.83-8.61-10.33,14.05-5.49,32.61-5.49,32.61C160.23,223,161.91,207.92,161.91,207.92Zm-16.25-10.74s9.17-.56,16.76,8.18c0,0,1.86-7.34-4.34-11.61a9.14,9.14,0,0,0-11.17,0Z"/><path class="cls-6" d="M98.81,156.09s-3.79,6-7.24,5.87l16.6,39.7,17.45-25,18.17,25,16.46-39.32s-5.1-2.42-7.15-6.25Z"/><path class="cls-7" d="M82.2,82.74s-8.37-34.53,12-55.84,56.43-7,55.15-5.37c0,0,28.07,10.61,19.32,62.22C159.36,139,76.81,95.27,82.2,82.74Z"/><path class="cls-8" d="M152.34,154s13.28,8.17,5.49,34.09a4.35,4.35,0,0,0-3.94,2.19,28.11,28.11,0,0,1,3.71,1,29.91,29.91,0,0,1,3.29,2.4s.7-3.95-1.08-5.11a49.68,49.68,0,0,0,2.87-16.91c-.13-9.26-7.27-20.09-10.75-21.06S152.34,154,152.34,154Z"/><path class="cls-9" d="M100,152.43s-9.48,6.47-14,16.42a56.47,56.47,0,0,0-4.85,28l-.16.66H79.32l.38,5.05,6.13-.9-.51-4.91-2,.25s-.64-14.3,2.8-22.59,6.83-13.78,13.25-18.89S100,152.43,100,152.43Z"/><path class="cls-10" d="M100,132.32s.9,23.85-1.22,23.77l26.41,19.57,1,.43,26.84-20s-2.12-.6-1.27-23.41S100,132.32,100,132.32Z"/><path class="cls-11" d="M100,132.32l.19,11.54,39,22.55,13.85-10.32s-1.87,2-1.27-23.41S100,132.32,100,132.32Z"/><path class="cls-10" d="M164.17,79.32c5.72,0,4.42,10.47,4.42,10.47-.76,16.51-9.78,16.25-9.78,16.25L158,114.9c.26,6-4.94,15.66-4.94,15.66l-8.34,12.34c-3,5.19-9.7,5.95-9.7,5.95H120.51c-7.83,0-9.06-3.74-11.58-5.61-1.5-1.13-5.86-6.59-8.9-10.92-2-2.78-3.44-5-3.44-5-3.7-3.79-4.34-11.74-4.34-11.74l-.93-9.2C86.38,107.07,83,96.6,83,96.6c-4.26-19.41,3.74-18,3.74-18s2.52-1.17,3.75,15.15L90,57.36S92.68,44.51,106,44.94s38.64-1.36,38.64-1.36,4.85-.77,9.87,9.53,6.13,32.93,5.36,38.3C159.91,91.41,160.51,79.32,164.17,79.32Z"/><path class="cls-12" d="M118.55,110.13l6.21,4.6s.78.93,1.5-.35l6-4.25s-1-1.53-4-.43-2.8,1.37-5.61.09S118.55,110.13,118.55,110.13Z"/><path class="cls-13" d="M72.86,165.78,67,170.14l6.38,10.34-9.06,8.05s5.74,17.23,9.06,22.34a84.45,84.45,0,0,1,6.13,12s9.71,16.54,19.54,25l1.37.29s-18.36-21.84-19-24.9S73,208.44,73,208.44s-7.92-18.38-7-19.4,9.19-8.56,9.19-8.56l-6.51-9.95Z"/><path class="cls-14" d="M180.78,166.56l3.15,3.41-6.44,10.76,9.32,8.55s-3.32,13.15-8.56,23.49-14.45,25.1-23.83,34.61l2.41-.59s21-21.77,31.25-57.64l-9.44-8.94,6.28-10.4Z"/><path class="cls-15" d="M95,212.7c0,6.63-3.8,11.27-10.55,11.27s-11.92-4.35-11.92-11a11.23,11.23,0,0,1,11.62-11.55C90.92,201.44,95,206.08,95,212.7Z"/><circle class="cls-16" cx="83.79" cy="212.7" r="5.34"/><path class="cls-17" d="M123.06,232.9a3.83,3.83,0,0,1-1.65,0,4.94,4.94,0,0,1-2.33-1.37c-.57-.7-1.66-2-.73-3.51s3.06-.76,3.41-.44S123.65,229,124,230s.37,1.22.2,1.58A3.41,3.41,0,0,1,123.06,232.9Z"/><path class="cls-17" d="M141.66,243.58a3.37,3.37,0,0,1,2.89.56c.43.47,1.41,1.28,1.79,1.79a2.12,2.12,0,0,1,.16,2.49,2.6,2.6,0,0,1-3.54.41c-1.06-.86-2.56-2.6-2.24-3.81S141.24,243.67,141.66,243.58Z"/></g></g></svg>